<?xml version="1.0" encoding="utf-8"?>
<!-- Generator: Adobe Illustrator 27.7.0, SVG Export Plug-In . SVG Version: 6.00 Build 0)  -->
<svg version="1.1" id="_イヤー_2" xmlns="http://www.w3.org/2000/svg" xmlns:xlink="http://www.w3.org/1999/xlink" x="0px"
	 y="0px" viewBox="0 0 8.5 27.8" style="enable-background:new 0 0 8.5 27.8;" xml:space="preserve">
<g>
	<path d="M8.1,26.5c-0.2,0.4-0.4,0.7-0.7,0.9c-0.3,0.2-0.7,0.3-1.1,0.4V27c0.4,0,0.7-0.2,1-0.5c0.3-0.3,0.4-0.7,0.4-1.3
		c0-0.5-0.1-0.9-0.4-1.2c-0.3-0.3-0.6-0.5-1-0.5c-0.3,0-0.6,0.1-0.8,0.3c-0.2,0.2-0.4,0.4-0.5,0.6c-0.1,0.3-0.2,0.6-0.3,1
		c-0.1,0.5-0.3,0.9-0.4,1.2C4.2,27,4,27.2,3.7,27.4S3,27.7,2.6,27.7c-0.4,0-0.8-0.1-1.1-0.3c-0.3-0.2-0.6-0.5-0.7-0.9
		c-0.2-0.4-0.3-0.8-0.3-1.3c0-0.7,0.2-1.3,0.5-1.7c0.4-0.4,0.8-0.7,1.4-0.8v0.8c-0.3,0.1-0.6,0.2-0.8,0.5c-0.2,0.3-0.4,0.7-0.4,1.2
		c0,0.5,0.1,0.9,0.4,1.2c0.2,0.3,0.6,0.5,1,0.5c0.3,0,0.6-0.1,0.8-0.3c0.2-0.2,0.4-0.4,0.5-0.6c0.1-0.3,0.2-0.6,0.3-1
		c0.1-0.5,0.3-0.9,0.4-1.2c0.1-0.3,0.3-0.6,0.6-0.8c0.3-0.2,0.7-0.3,1.1-0.3c0.4,0,0.7,0.1,1,0.3c0.3,0.2,0.6,0.5,0.8,0.9
		c0.2,0.4,0.3,0.8,0.3,1.4C8.4,25.7,8.3,26.2,8.1,26.5z"/>
	<path d="M3.6,21.2c-0.5-0.3-0.8-0.6-1.1-1s-0.4-0.9-0.4-1.5c0-0.7,0.2-1.4,0.6-1.8c0.4-0.5,0.9-0.8,1.5-0.9v0.8
		c-0.4,0.1-0.8,0.3-1,0.7c-0.2,0.3-0.4,0.8-0.4,1.3c0,0.4,0.1,0.8,0.3,1.1c0.2,0.3,0.5,0.6,0.8,0.8c0.4,0.2,0.8,0.3,1.3,0.3
		c0.5,0,1-0.1,1.4-0.3c0.4-0.2,0.6-0.4,0.8-0.8c0.2-0.3,0.3-0.7,0.3-1.1c0-0.5-0.1-0.9-0.4-1.3c-0.2-0.3-0.6-0.6-1-0.7v-0.8
		C7,16,7.5,16.3,7.8,16.8c0.4,0.5,0.6,1.1,0.6,1.8c0,0.6-0.1,1.1-0.4,1.5c-0.3,0.4-0.6,0.8-1.1,1c-0.5,0.3-1,0.4-1.6,0.4
		C4.7,21.6,4.1,21.4,3.6,21.2z"/>
	<path d="M2.5,12.9c-0.2-0.4-0.3-0.8-0.3-1.3H3v0.2c0,0.6,0.2,1,0.5,1.4c0.3,0.3,0.8,0.5,1.5,0.5h3.4v0.8h-6v-0.8h1.1
		C3,13.5,2.7,13.2,2.5,12.9z"/>
	<path d="M8,9.3c-0.3,0.5-0.6,0.8-1.1,1.1s-1,0.4-1.6,0.4c-0.6,0-1.2-0.1-1.6-0.4S2.8,9.7,2.6,9.3c-0.3-0.5-0.4-1-0.4-1.5
		c0-0.6,0.1-1.1,0.4-1.5c0.3-0.5,0.6-0.8,1.1-1.1c0.5-0.3,1-0.4,1.6-0.4c0.6,0,1.2,0.1,1.6,0.4C7.4,5.4,7.8,5.8,8,6.2
		c0.3,0.5,0.4,1,0.4,1.5C8.4,8.3,8.3,8.9,8,9.3z M7.5,6.7C7.3,6.3,7,6,6.6,5.8S5.8,5.5,5.3,5.5c-0.5,0-1,0.1-1.3,0.3
		C3.6,6,3.3,6.3,3.1,6.7C2.9,7,2.9,7.4,2.9,7.8c0,0.4,0.1,0.8,0.3,1.1c0.2,0.3,0.5,0.6,0.8,0.8C4.3,9.9,4.8,10,5.3,10
		c0.5,0,1-0.1,1.3-0.3C7,9.5,7.3,9.2,7.5,8.9c0.2-0.3,0.3-0.7,0.3-1.1C7.7,7.4,7.6,7,7.5,6.7z"/>
	<path d="M0.1,2.5h8.2v0.8H0.1V2.5z"/>
	<path d="M0.1,0h8.2v0.8H0.1V0z"/>
</g>
</svg>
